<!DOCTYPE svg PUBLIC "-//W3C//DTD SVG 1.1//EN" "http://www.w3.org/Graphics/SVG/1.1/DTD/svg11.dtd">
<!-- Uploaded to: SVG Repo, www.svgrepo.com, Transformed by: SVG Repo Mixer Tools -->
<svg height="800px" width="800px" version="1.1" id="Layer_1" xmlns="http://www.w3.org/2000/svg" xmlns:xlink="http://www.w3.org/1999/xlink" viewBox="0 0 512 512" xml:space="preserve" fill="#000000">
<g id="SVGRepo_bgCarrier" stroke-width="0"/>
<g id="SVGRepo_tracerCarrier" stroke-linecap="round" stroke-linejoin="round"/>
<g id="SVGRepo_iconCarrier"> <polygon style="fill:#db000b;" points="337.172,148.439 425.339,169.791 337.172,191.15 "/> <path style="fill:#fbf9f4;" d="M5.312,100.032C-9.145,134.505-0.096,275.661,109.4,327.131L12.18,485.313l0,0 c37.324-2.17,70.973-23.201,89.276-55.802l0.738-1.313l4.318-0.055c51.468-0.663,101.969-14.071,146.988-39.026l0,0 c61.274-33.965,91.712-105.159,73.929-172.922l0,0c25.627-25.627,25.627-67.178,0-92.806c-0.534-0.534-1.075-1.056-1.623-1.568 c-29.299-27.385-76.372-20.63-98.07,12.812c-0.565,0.87-1.066,1.776-1.535,2.702c-4.586,9.036-31.934,61.372-50.26,61.472 C126.019,199.077,5.312,100.032,5.312,100.032z"/> <g> <path style="fill:#db000b;" d="M69.739,196.061c4.187-1.093,6.697-5.373,5.604-9.56c-1.093-4.187-5.372-6.698-9.56-5.604 c-35,9.13-53.975,6.432-60.124,5.001c1.144,5.459,2.499,11.009,4.077,16.606c3.227,0.376,7.104,0.637,11.697,0.637 C32.922,203.141,48.813,201.519,69.739,196.061z"/> <path style="fill:#db000b;" d="M89.455,246.729c4.187-1.093,6.697-5.373,5.604-9.56c-1.093-4.187-5.372-6.698-9.56-5.604 c-31.259,8.154-52.887,7.08-62.994,5.72c2.56,5.554,5.382,11.061,8.473,16.482c2.098,0.097,4.338,0.159,6.76,0.159 C50.605,253.924,68,252.326,89.455,246.729z"/> <path style="fill:#db000b;" d="M119.831,294.434c4.187-1.093,6.697-5.373,5.604-9.56c-1.093-4.186-5.373-6.698-9.56-5.604 c-40.769,10.637-61.021,5.23-63.734,4.411c5.315,6.205,11.428,12.224,17.756,17.791c0.462,0.005,0.445,0.01,0.92,0.01 C82.675,301.481,98.928,299.887,119.831,294.434z"/> <circle style="fill:#db000b;" cx="281.025" cy="169.787" r="15.477"/> </g> <circle style="fill:#FF3F62;" cx="466.912" cy="169.787" r="15.477"/> <g> <path style="fill:#e2747a;" d="M512,168.889c0,0-78.561,9.759-82.123,145.523C429.878,314.413,501.352,271.512,512,168.889z"/> <path style="fill:#e2747a;" d="M512,168.889c0,0-78.561-9.759-82.123-145.523C429.878,23.366,501.352,66.266,512,168.889z"/> </g> <path style="fill:#FFF5CC;" d="M279.519,272.365c0.741,69.265-45.06,130.3-111.53,149.088c30.242-6.38,59.479-17.241,86.708-32.335 l0,0c54.677-30.308,84.797-90.262,78.014-150.968L279.519,272.365L279.519,272.365z"/> <g style="opacity:0.19;"> <path style="fill:#db000b;" d="M327.429,219.516c25.627-25.627,25.627-67.178,0-92.806c-0.534-0.534-1.075-1.056-1.623-1.568 c-5.171-4.832-10.901-8.58-16.941-11.327c21.63,25.783,20.338,64.272-3.907,88.518l0,0 c17.783,67.763-12.654,138.958-73.929,172.922l0,0c-45.018,24.955-95.52,38.362-146.988,39.026l-4.318,0.055l-0.738,1.313 c-11.601,20.662-29.371,36.668-50.329,46.178L12.18,488.635l0,0c37.324-2.17,70.973-23.201,89.276-55.802l0.738-1.313l4.318-0.055 c51.468-0.663,101.969-14.071,146.988-39.026l0,0C314.774,358.475,345.211,287.281,327.429,219.516L327.429,219.516z"/> </g> </g>
</svg>